<svg xmlns="http://www.w3.org/2000/svg" width="35.172" height="42.787" viewBox="0 0 35.172 42.787">
  <g id="pdf文件圖檔" transform="translate(-321 -536.99)">
    <path id="Path_1978" data-name="Path 1978" d="M74.717,586.123H57.532a4.561,4.561,0,0,0-4.554,4.554v16.84h-.445a1.835,1.835,0,0,0-1.835,1.836v11.129a1.834,1.834,0,0,0,1.835,1.835h.445v2.041a4.559,4.559,0,0,0,4.554,4.554H80.98a4.559,4.559,0,0,0,4.554-4.554V596.9ZM55.369,611.258h2l.675,1.408c.229.47.4.848.585,1.283h.023c.183-.492.332-.836.527-1.283l.653-1.408h1.992l-2.176,3.766,2.29,3.952H59.926l-.7-1.4c-.286-.538-.47-.938-.688-1.386h-.022c-.161.448-.355.847-.6,1.386l-.641,1.4H55.289l2.233-3.9ZM80.98,626.121H57.532a1.766,1.766,0,0,1-1.764-1.764v-2.041H77.627a1.835,1.835,0,0,0,1.835-1.835V609.352a1.836,1.836,0,0,0-1.835-1.836H55.768v-16.84a1.766,1.766,0,0,1,1.764-1.762l16.142-.017v5.967a3.159,3.159,0,0,0,3.159,3.158l5.844-.017.066,26.351a1.765,1.765,0,0,1-1.762,1.764ZM67.706,617.51v1.465H62.885v-7.718h1.752v6.252Zm2.958-1.775c-1.283-.446-2.119-1.156-2.119-2.279,0-1.318,1.1-2.324,2.92-2.324a4.733,4.733,0,0,1,1.97.389l-.389,1.409a3.678,3.678,0,0,0-1.615-.367c-.756,0-1.122.345-1.122.744,0,.492.435.71,1.432,1.088,1.363.5,2,1.214,2,2.3,0,1.293-1,2.393-3.115,2.393a5.052,5.052,0,0,1-2.189-.47l.356-1.442a4.447,4.447,0,0,0,1.935.479c.8,0,1.225-.331,1.225-.835,0-.481-.367-.757-1.293-1.088Zm0,0" transform="translate(270.639 -49.133)" fill="#666"/>
    <rect id="Rectangle_168" data-name="Rectangle 168" width="30.204" height="15.765" rx="3.775" transform="translate(321 558.001)" fill="#dc000c"/>
    <path id="Path_1979" data-name="Path 1979" d="M56.788,619.612h3.948a2.7,2.7,0,0,1,1.933.614,2.3,2.3,0,0,1,.642,1.746,2.372,2.372,0,0,1-.7,1.82,3.035,3.035,0,0,1-2.137.655h-1.3V627.3H56.788Zm2.385,3.278h.582a1.5,1.5,0,0,0,.965-.239.768.768,0,0,0,.278-.611.854.854,0,0,0-.241-.613,1.251,1.251,0,0,0-.907-.251h-.677Z" transform="translate(269.16 -57.261)" fill="#fff"/>
    <path id="Path_1980" data-name="Path 1980" d="M67.084,619.612h3.53a4.233,4.233,0,0,1,1.686.283,2.755,2.755,0,0,1,1.062.813,3.365,3.365,0,0,1,.608,1.233,5.72,5.72,0,0,1,.189,1.489,5.171,5.171,0,0,1-.28,1.911,3.156,3.156,0,0,1-.779,1.138,2.529,2.529,0,0,1-1.069.61,5.5,5.5,0,0,1-1.416.211h-3.53Zm2.376,1.742v4.2h.582a2.439,2.439,0,0,0,1.059-.166,1.119,1.119,0,0,0,.493-.576,3.624,3.624,0,0,0,.178-1.334,2.589,2.589,0,0,0-.4-1.673,1.683,1.683,0,0,0-1.321-.451Z" transform="translate(266.662 -57.261)" fill="#fff"/>
    <path id="Path_1981" data-name="Path 1981" d="M78.089,619.612h5.874v1.652H80.475v1.343h2.978v1.552H80.475V627.3H78.089Z" transform="translate(263.99 -57.261)" fill="#fff"/>
  </g>
</svg>
