<svg xmlns="http://www.w3.org/2000/svg" width="40" height="43.473" viewBox="0 0 40 43.473">
  <g id="icon_供應商合約簽屬" transform="translate(-772.153 -235.482)">
    <path id="Path_1989" data-name="Path 1989" d="M783.688,278.956a22.358,22.358,0,0,1-7.875-1.158,7.791,7.791,0,0,1-3.066-1.963,1.807,1.807,0,0,1-.5-1.813c.921-3.915,1.765-7.848,2.635-11.775a1.182,1.182,0,0,0,.041-.258,46.05,46.05,0,0,0-.439-8.239c-.862-4.6-1.575-9.226-2.327-13.845a1.071,1.071,0,0,1,.226-.8,10.516,10.516,0,0,1,1.716-1.593,11.708,11.708,0,0,1,5.048-1.719,28.189,28.189,0,0,1,11.325.587,13.357,13.357,0,0,1,4.09,1.832c.241.164.464.354.7.528a1.417,1.417,0,0,1,.615,1.56c-.813,4.623-1.549,9.26-2.343,13.887a31.121,31.121,0,0,0-.414,4.563,25.163,25.163,0,0,0,.731,6.577c.743,3.058,1.383,6.142,2.076,9.212a.7.7,0,0,1-.191.708,9.638,9.638,0,0,1-3.243,2.106,20.713,20.713,0,0,1-6.709,1.5C784.986,278.914,784.184,278.932,783.688,278.956Zm-1.028-37.729v12.631a6.3,6.3,0,0,1,5.938,1.825.42.42,0,0,0,.258.13c.989.009,1.978.006,3,.006l2.517-15.115c-1.979.177-3.9.418-5.837.5S784.633,241.227,782.66,241.227Zm.638,36.317a25.656,25.656,0,0,0,6.084-.654,12.82,12.82,0,0,0,4.771-2.09.544.544,0,0,0,.249-.653c-.561-2.443-1.091-4.893-1.634-7.341-.293-1.319-.591-2.637-.892-3.977-.6,0-1.167.017-1.734-.006a.648.648,0,0,0-.684.377,6.224,6.224,0,0,1-6.3,3.063c-.152-.021-.306-.027-.493-.043C782.881,270.006,783.088,273.747,783.3,277.544Zm-1.435-.041c0-.157.006-.295,0-.432-.032-.67-.065-1.341-.1-2.011q-.256-4.567-.523-9.132a.523.523,0,0,0-.215-.369,6.5,6.5,0,0,1-2.505-2.5.43.43,0,0,0-.277-.215c-.681-.018-1.363-.01-2.043-.01-.863,3.876-1.719,7.7-2.556,11.528a.647.647,0,0,0,.161.534,9.055,9.055,0,0,0,1.533,1.142A15.484,15.484,0,0,0,781.864,277.5Zm-.628-34.169a34.366,34.366,0,0,1-3.826-.533,33.615,33.615,0,0,1-3.572-1.308l2.387,14.327c.929,0,1.817-.014,2.7.007a.964.964,0,0,0,.723-.3,8.962,8.962,0,0,1,1.249-.947.621.621,0,0,0,.34-.618c-.01-3.428-.006-6.856-.006-10.284Zm7.7,16.707a4.9,4.9,0,1,0-4.919,4.888A4.917,4.917,0,0,0,788.94,260.041Zm4.571-20.654.024-.155a2.592,2.592,0,0,0-.354-.227,23.93,23.93,0,0,0-2.647-1.124,25.989,25.989,0,0,0-11.86-.584,9.973,9.973,0,0,0-3.95,1.453c-.341.226-.641.514-1.078.87l3.1,1.628.089-.117-.626-2.568c.1-.044.146-.072.2-.09a20.389,20.389,0,0,1,4.73-1.025,11.163,11.163,0,0,1,4.885.417,4.578,4.578,0,0,1,2.522,1.782.452.452,0,0,0,.358.144C790.44,239.664,791.976,239.524,793.511,239.387Zm-6.792.531.019-.193c-2.886-1.585-5.848-.912-8.862-.267.171.7.321,1.332.491,1.962a.338.338,0,0,0,.232.2c.861.088,1.725.157,2.655.238v-2.176Zm4.992,18.691v-1.355h-1.985l.479,1.355Zm-13.362-1.357h-1.981v1.353h1.5Zm-2,4.15h1.516l-.165-1.348h-1.351Zm13.859,0h1.507v-1.35h-1.346Z" fill="#115336"/>
    <path id="Path_1990" data-name="Path 1990" d="M994.347,276.311c-.871,1.963-1.706,3.889-2.583,5.8a3.636,3.636,0,0,0-.4,1.891c.028.3,0,.61,0,.962h5l-.874,7H981.642l-.874-6.97h4.992a6.586,6.586,0,0,0-.313-2.726c-.932-1.944-1.767-3.935-2.643-5.911a8.807,8.807,0,0,0,.89-.769,5.837,5.837,0,0,0,1.327-4.654,11.325,11.325,0,0,0-1.048-3.412c-.688-1.605-1.411-3.2-1.992-4.845a8.659,8.659,0,0,1-.349-3.98,5.379,5.379,0,0,1,3.763-4.714,9.289,9.289,0,0,1,6.184-.059,5.561,5.561,0,0,1,3.99,5.429,12.98,12.98,0,0,1-1.276,5.756c-.654,1.478-1.321,2.953-1.891,4.464a6.218,6.218,0,0,0-.191,3.5A4.64,4.64,0,0,0,994.347,276.311Zm-7.861-.457h5.32a.764.764,0,0,0-.042-.162,7.671,7.671,0,0,1-.657-6.658c.513-1.512,1.221-2.959,1.868-4.424a11.729,11.729,0,0,0,1.19-5.2,4.223,4.223,0,0,0-2.882-4.131,8.107,8.107,0,0,0-5.367-.023,3.9,3.9,0,0,0-2.823,3.259,10.654,10.654,0,0,0,.018,2.782,15.33,15.33,0,0,0,1.541,4.4,27.442,27.442,0,0,1,1.406,3.432,7.507,7.507,0,0,1-1.389,7.478.432.432,0,0,0-.044.374c.3.726.622,1.446.96,2.156a.474.474,0,0,0,.353.219c1.751.014,3.5.012,5.253,0a.414.414,0,0,0,.32-.142c.3-.626.57-1.264.877-1.958h-5.9Zm-3.609,14.7h11.376l.521-4.159H982.358Zm7.94-9.766c-.151-.01-.248-.021-.346-.021H986.3c.206.462.378.875.578,1.274a.372.372,0,0,0,.285.122c.933.009,1.866.01,2.8,0a.406.406,0,0,0,.31-.152C990.467,281.625,990.629,281.222,990.818,280.79Zm-.87,2.8h-2.758v1.38h2.758Z" transform="translate(-184.213 -15.838)" fill="#115336"/>
    <path id="Path_1991" data-name="Path 1991" d="M847.364,415.35a3.5,3.5,0,1,1-3.539,3.476A3.51,3.51,0,0,1,847.364,415.35Zm2.063,3.514a2.1,2.1,0,1,0-2.09,2.09A2.109,2.109,0,0,0,849.427,418.864Z" transform="translate(-63.289 -158.828)" fill="#115336"/>
    <path id="Path_1992" data-name="Path 1992" d="M1047.584,279.078v-1.315a4.156,4.156,0,0,1,4.1,2.372,5.669,5.669,0,0,1-.758,4.937l-1-.668a16.12,16.12,0,0,0,.6-2.474,2.354,2.354,0,0,0-2.2-2.739C1048.094,279.15,1047.863,279.12,1047.584,279.078Z" transform="translate(-243.213 -37.298)" fill="#115336"/>
  </g>
</svg>
