<svg xmlns="http://www.w3.org/2000/svg" width="40" height="40.04" viewBox="0 0 40 40.04">
  <path id="icon_誠信經營宣導及簽署" d="M521.82,187.024l-.322-.651a1.272,1.272,0,0,0-1.3-.812c-2.26.013-4.557.011-6.778.009h-3.188v-.678q0-.5,0-.994c0-.722,0-1.469-.008-2.2a3.351,3.351,0,0,0-3.33-3.263h-.011a3.352,3.352,0,0,0-3.349,3.272c-.012.734-.01,1.481-.008,2.2q0,.5,0,.993v.669h-3.174c-2.242,0-4.56,0-6.84-.007a1.2,1.2,0,0,0-1.218.747c-.783,1.6-1.6,3.219-2.382,4.785l-.4.8q-.925,1.843-1.856,3.684l-.8,1.582v.954c.023.1.045.205.067.308.049.23.1.467.162.7a6.417,6.417,0,0,0,12.54-.739,3.1,3.1,0,0,0-.315-1.961c-1.02-1.98-2.028-4.007-3-5.967q-.534-1.073-1.069-2.146c-.043-.087-.084-.175-.131-.277l-.076-.165-.14-.3h8.614v24.208h-.565c-.25,0-.5,0-.744,0a5.681,5.681,0,0,0-5.738,4.8c-.017.092-.025.188-.033.289-.007.082-.014.166-.026.251a1.132,1.132,0,0,0,.72,1.363h19.516a1.127,1.127,0,0,0,.718-1.362c-.015-.1-.027-.2-.04-.3a5.616,5.616,0,0,0-5.6-5.038c-.283-.005-.572,0-.852,0h-.608V187.546h8.618l-.141.3-.085.183c-.053.115-.1.216-.15.316q-.533,1.066-1.064,2.134c-.971,1.952-1.976,3.971-2.992,5.943a3.088,3.088,0,0,0-.309,1.962,6.423,6.423,0,0,0,12.607.5,3.644,3.644,0,0,0-.3-2.666C524.854,193.174,523.312,190.048,521.82,187.024Zm-24.3,11.633c-.2,1.648-2.158,3.192-4.11,3.239h-.1a4.364,4.364,0,0,1-4.273-3.229l-.043-.247h8.555Zm-.384-2.228h-7.7l3.85-7.7Zm8.358-14.745a1.4,1.4,0,0,1,1.387-1.305h.007a1.385,1.385,0,0,1,1.39,1.3c.019.87.015,1.754.011,2.608q0,.455,0,.911a.461.461,0,0,1-.042.177c0,.009-.007.018-.01.026l-.046.148h-2.7v-.88c0-.522,0-1.037,0-1.552,0-.138,0-.277,0-.415C505.476,182.369,505.472,182.025,505.489,181.685Zm2.77,5.851v24.207h-2.743V187.536Zm3.515,26.2a3.6,3.6,0,0,1,3.3,2.178,1.646,1.646,0,0,1,.08.2c.012.034.025.07.041.112l.108.286H498.448l.114-.289a3.782,3.782,0,0,1,2.661-2.394,3.013,3.013,0,0,1,.755-.1l2.188-.006C506.659,213.711,509.238,213.7,511.774,213.731Zm8.715-25.005,3.845,7.691h-7.689Zm4.232,9.914c-.137,1.647-2.235,3.258-4.238,3.258h-.011c-2.006-.006-4.093-1.621-4.215-3.26l-.017-.227h8.5Z" transform="translate(-486.863 -178.431)" fill="#115336"/>
</svg>
