<svg xmlns="http://www.w3.org/2000/svg" width="35" height="45.928" viewBox="0 0 35 45.928">
  <g id="icon_政策辦法訂定" transform="translate(-647.655 -229.57)">
    <path id="Path_1993" data-name="Path 1993" d="M651.784,275.5a5.505,5.505,0,0,1-2.385-1.061,4.675,4.675,0,0,1-1.741-3.726q-.008-3.9,0-7.8,0-14.238,0-28.476a4.693,4.693,0,0,1,3.626-4.725,5.447,5.447,0,0,1,1.243-.132q14.6-.011,29.2-.005c.715,0,.921.212.921.943q0,16.637.006,33.274a1.285,1.285,0,0,1-.355.924,4.981,4.981,0,0,0,0,6.767,1.242,1.242,0,0,1,.36.923c-.021.717-.025,1.435,0,2.152a.956.956,0,0,1-.456.945Zm1.289-44.564V260.66h28.2V230.935Zm27.475,40.527a7.2,7.2,0,0,1-.425-.934c-.106-.359-.312-.419-.654-.419q-12.695.014-25.39.007c-.714,0-1.049-.224-1.035-.692.013-.45.333-.653,1.029-.653h25.566v-1.346H654.083c-.717,0-1.05-.221-1.04-.687s.33-.658,1.024-.658h25.345a2.274,2.274,0,0,0,.358-.005.311.311,0,0,0,.212-.112c.188-.394.358-.8.544-1.215-.107-.006-.166-.012-.226-.012q-13.884,0-27.768,0c-.6,0-.837.238-.838.845q0,2.422,0,4.844c0,.871.169,1.038,1.052,1.038h27.8Zm.732,1.346H652.595a2.041,2.041,0,0,1-2.247-2.253q0-2.4,0-4.8a2.071,2.071,0,0,1,2.357-2.367h28.566v-1.345h-.337q-14.241,0-28.481,0a3.351,3.351,0,0,0-3.45,3.462c-.007,1.659,0,3.318,0,4.978a3.384,3.384,0,0,0,3.652,3.668h28.625ZM651.67,260.581V231.026A3.3,3.3,0,0,0,649,234.384q0,13.631,0,27.262a2.207,2.207,0,0,0,.018.253Z" transform="translate(0)" fill="#115336"/>
    <path id="Path_1994" data-name="Path 1994" d="M740.823,275.808h-8.556c.088.195.155.356.232.513,1.009,2.065,1.994,4.143,3.044,6.187a2.646,2.646,0,0,1,.183,1.983,4.7,4.7,0,0,1-9.249-.7,1.977,1.977,0,0,1,.18-.985c1.248-2.6,2.528-5.177,3.781-7.77a.957.957,0,0,1,.981-.605q5.135.02,10.27,0a.929.929,0,0,1,.946.588q1.9,3.929,3.839,7.842a2.172,2.172,0,0,1,.052,1.486,4.7,4.7,0,0,1-9.289-.634,1.9,1.9,0,0,1,.18-.9c1.04-2.166,2.1-4.321,3.159-6.479C740.654,276.181,740.726,276.019,740.823,275.808Zm-12.613,6.867h5.9l-2.949-6.03Zm10.77-.009h5.891l-2.946-6.02ZM727.9,284.06a3.321,3.321,0,0,0,6.513,0Zm17.282,0H738.67a3.321,3.321,0,0,0,6.511,0Z" transform="translate(-69.372 -39.488)" fill="#115336"/>
    <path id="Path_1995" data-name="Path 1995" d="M728.014,269.67V253.4H705.158v.474q0,4.059,0,8.118a1.94,1.94,0,0,1-.021.446.632.632,0,0,1-.635.53.641.641,0,0,1-.672-.542,1.507,1.507,0,0,1-.017-.357q0-4.552,0-9.1c0-.724.207-.932.932-.932H728.43c.752,0,.952.2.952.958q0,8.544,0,17.088c0,.778-.2.971-.984.971H704.8c-.808,0-.99-.186-.99-1.009q0-2.422,0-4.844c0-.556.251-.875.675-.872s.668.319.669.879c0,1.479,0,2.957,0,4.468Z" transform="translate(-49.427 -19.77)" fill="#115336"/>
  </g>
</svg>
