<svg xmlns="http://www.w3.org/2000/svg" width="40" height="39.99" viewBox="0 0 40 39.99">
  <g id="icon_申訴檢舉" transform="translate(-93 -216.659)">
    <path id="Path_1974" data-name="Path 1974" d="M93,232.672a3.415,3.415,0,0,1,1.166-2.052,3.226,3.226,0,0,1,2.49-.665.638.638,0,0,0,.466-.135q4.527-4.5,9.029-9.025a.552.552,0,0,0,.164-.39,3.114,3.114,0,0,1,1.655-3.395,3.064,3.064,0,0,1,3.631.594c2.21,2.17,4.414,4.347,6.57,6.57a3.089,3.089,0,0,1-1.416,5.244,4.005,4.005,0,0,1-1.232.057.64.64,0,0,0-.583.2c-.211.227-.459.419-.7.639a2.454,2.454,0,0,1,.727,3.81q1.938,1.692,3.877,3.385,4.133,3.605,8.267,7.21c1.489,1.3,3.011,2.568,4.446,3.925a4.313,4.313,0,0,1,1.232,4.607,4.578,4.578,0,0,1-3.641,3.314c-.1.022-.2.056-.294.084h-1.171a5.612,5.612,0,0,1-3.229-1.939q-6.145-7.118-12.338-14.194c-.551-.634-1.1-1.266-1.669-1.912a2.356,2.356,0,0,1-2.053.6,2.492,2.492,0,0,1-1.715-1.315,3.912,3.912,0,0,1-.45.508,1,1,0,0,0-.375,1.042,3.09,3.09,0,0,1-2.762,3.323,3.252,3.252,0,0,1-2.7-1.037c-1.967-1.97-3.926-3.947-5.909-5.9A4.594,4.594,0,0,1,93,233.453Zm11.925,4.654,8.749-8.743-6.5-6.5-8.753,8.753Zm14.979,9.765,3.513-3.518-9.516-8.3-2.289,2.295Zm3.156,3.642c1.039,1.178,2.031,2.384,3.112,3.5a2.822,2.822,0,0,0,2.991.71,3.108,3.108,0,0,0,1.1-5.4c-1-.886-2.015-1.763-3.024-2.642a2.052,2.052,0,0,0-.2-.141ZM109.585,218.21a1.666,1.666,0,0,0-1.625.938,1.515,1.515,0,0,0,.339,1.76q3.288,3.308,6.6,6.6a1.554,1.554,0,1,0,2.2-2.2q-3.3-3.328-6.631-6.616A3.136,3.136,0,0,0,109.585,218.21ZM96.125,231.488a1.492,1.492,0,0,0-1.417.92,1.453,1.453,0,0,0,.314,1.725q3.3,3.324,6.622,6.623a1.554,1.554,0,1,0,2.194-2.2q-3.284-3.312-6.593-6.6A1.5,1.5,0,0,0,96.125,231.488Zm11.929,5.3a.79.79,0,0,0,1.405.587q2.127-2.125,4.25-4.253a.793.793,0,0,0,.08-1.179.8.8,0,0,0-1.18.077q-2.133,2.118-4.248,4.255A2.1,2.1,0,0,0,108.054,236.787Zm16.67,7.924-3.684,3.683.941,1.081,3.822-3.817Z" transform="translate(0 0)" fill="#115336"/>
    <path id="Path_1975" data-name="Path 1975" d="M93,536.928a14.04,14.04,0,0,1,.546-1.4,3.557,3.557,0,0,1,.667-.856,8.976,8.976,0,0,1,.847-.674c-.032-.061-.069-.138-.111-.213a2.723,2.723,0,0,1,2.111-4.1,3.5,3.5,0,0,1,.351-.016q6.52,0,13.039,0a2.742,2.742,0,0,1,2.386,4.266,15.7,15.7,0,0,1,1.271,1.262,4.248,4.248,0,0,1,.745,3.147.843.843,0,0,1-.607.695H93.625L93,538.412Zm20.287.524a2.32,2.32,0,0,0-2.413-2.318q-6.946-.011-13.891,0a2.781,2.781,0,0,0-.312.017,2.316,2.316,0,0,0-2.087,2.3Zm-9.314-6.225h-2.382c-1.419,0-2.838-.01-4.256,0a1.156,1.156,0,0,0-1.077,1.689,1.236,1.236,0,0,0,1.232.652q5.994-.009,11.987,0c.364,0,.729.009,1.093,0a1.129,1.129,0,0,0,1.086-.749,1.162,1.162,0,0,0-1.163-1.586C108.32,531.222,106.147,531.227,103.973,531.227Z" transform="translate(0 -282.388)" fill="#115336"/>
    <path id="Path_1976" data-name="Path 1976" d="M93,619.1l.625.625H93Z" transform="translate(0 -363.078)" fill="#115336"/>
    <path id="Path_1977" data-name="Path 1977" d="M200.875,298.109a2.11,2.11,0,0,1-.3.481q-1.558,1.589-3.144,3.151a.791.791,0,0,1-1.179.077.781.781,0,0,1,.076-1.178c1.042-1.056,2.1-2.1,3.145-3.149a.789.789,0,0,1,1.4.618Z" transform="translate(-92.944 -72.651)" fill="#115336"/>
    <path id="Path_1978" data-name="Path 1978" d="M174.343,355.189a.755.755,0,0,1-.784-.746.771.771,0,0,1,.75-.788.793.793,0,0,1,.792.754A.777.777,0,0,1,174.343,355.189Z" transform="translate(-72.679 -123.595)" fill="#115336"/>
  </g>
</svg>
