<svg xmlns="http://www.w3.org/2000/svg" width="43.65" height="43.649" viewBox="0 0 43.65 43.649"><defs><style>.a{fill:#767676;}</style></defs><path class="a" d="M310.32,586.123H274.854a4.092,4.092,0,0,0-4.092,4.092v35.466a4.092,4.092,0,0,0,4.092,4.092H310.32a4.092,4.092,0,0,0,4.092-4.092h0V590.215A4.092,4.092,0,0,0,310.32,586.123Zm1.365,26.722-5.852-5.852a1.362,1.362,0,0,0-1.923,0l-7.23,7.215-8.58-8.58a1.365,1.365,0,0,0-1.924,0L273.49,618.3V590.215a1.364,1.364,0,0,1,1.364-1.364H310.32a1.365,1.365,0,0,1,1.365,1.364Z" transform="translate(-270.762 -586.123)"/><path class="a" d="M301.436,595.129a5.456,5.456,0,1,0,5.456,5.456A5.456,5.456,0,0,0,301.436,595.129Zm0,8.184a2.728,2.728,0,1,1,2.728-2.728A2.728,2.728,0,0,1,301.436,603.313Z" transform="translate(-276.883 -588.309)"/></svg>