<svg xmlns="http://www.w3.org/2000/svg" width="35.171" height="42.787" viewBox="0 0 35.171 42.787"><defs><style>.a{fill:#666;}.b{fill:#5ca71f;}.c{fill:#fff;}</style></defs><g transform="translate(0.336)"><path class="a" d="M144.35,586.123H127.164a4.561,4.561,0,0,0-4.554,4.554v16.84h-.445a1.835,1.835,0,0,0-1.835,1.836v11.129a1.835,1.835,0,0,0,1.835,1.835h.445v2.041a4.559,4.559,0,0,0,4.554,4.554h23.449a4.559,4.559,0,0,0,4.553-4.554V596.9ZM125,611.258h2l.675,1.408c.229.47.4.848.585,1.283h.023c.183-.492.332-.836.527-1.283l.653-1.408h1.992l-2.176,3.766,2.29,3.952h-2.015l-.7-1.4c-.285-.538-.469-.938-.688-1.386h-.022c-.161.448-.355.847-.6,1.386l-.641,1.4h-1.992l2.232-3.9Zm25.611,14.863H127.164a1.766,1.766,0,0,1-1.764-1.764v-2.041h21.859a1.835,1.835,0,0,0,1.835-1.835V609.352a1.835,1.835,0,0,0-1.835-1.836H125.4v-16.84a1.766,1.766,0,0,1,1.764-1.762l16.142-.017v5.967a3.159,3.159,0,0,0,3.158,3.158l5.845-.017.066,26.351a1.765,1.765,0,0,1-1.762,1.764Zm-13.274-8.611v1.465h-4.822v-7.718h1.752v6.252Zm2.957-1.775c-1.283-.446-2.119-1.156-2.119-2.279,0-1.318,1.1-2.324,2.92-2.324a4.737,4.737,0,0,1,1.97.389l-.39,1.409a3.675,3.675,0,0,0-1.615-.367c-.756,0-1.122.345-1.122.744,0,.492.435.71,1.431,1.088,1.363.5,2,1.214,2,2.3,0,1.293-1,2.393-3.115,2.393a5.045,5.045,0,0,1-2.188-.47l.355-1.442a4.451,4.451,0,0,0,1.936.479c.8,0,1.225-.331,1.225-.835,0-.481-.366-.757-1.293-1.088Zm0,0" transform="translate(-120.33 -586.123)"/></g><rect class="b" width="30.204" height="15.765" rx="3.775" transform="translate(0 21.012)"/><g transform="translate(3.436 25.231)"><path class="c" d="M124.665,619.612h2.616l1.361,2.366,1.324-2.366h2.59l-2.392,3.724,2.618,3.965h-2.669l-1.518-2.47-1.518,2.47h-2.654l2.652-4.007Z" transform="translate(-124.423 -619.482)"/><path class="c" d="M136.465,619.612h2.376v5.8h3.708V627.3h-6.083Z" transform="translate(-127.346 -619.482)"/><path class="c" d="M145.378,624.715l2.26-.142a1.723,1.723,0,0,0,.3.839,1.256,1.256,0,0,0,1.049.466,1.16,1.16,0,0,0,.785-.239.714.714,0,0,0,.275-.553.7.7,0,0,0-.262-.535,3.028,3.028,0,0,0-1.217-.446,5.161,5.161,0,0,1-2.229-.934,1.877,1.877,0,0,1-.671-1.484,2.018,2.018,0,0,1,.343-1.119,2.281,2.281,0,0,1,1.034-.828,4.81,4.81,0,0,1,1.89-.3,3.868,3.868,0,0,1,2.247.548,2.369,2.369,0,0,1,.921,1.744l-2.239.131a1.047,1.047,0,0,0-1.165-.991.946.946,0,0,0-.624.176.536.536,0,0,0-.21.427.427.427,0,0,0,.173.33,1.958,1.958,0,0,0,.8.283,10.017,10.017,0,0,1,2.232.678,2.354,2.354,0,0,1,.981.853,2.158,2.158,0,0,1,.307,1.138,2.438,2.438,0,0,1-.409,1.363,2.558,2.558,0,0,1-1.144.947,4.616,4.616,0,0,1-1.851.323,3.81,3.81,0,0,1-2.716-.755A2.976,2.976,0,0,1,145.378,624.715Z" transform="translate(-129.509 -619.44)"/></g></svg>