<svg xmlns="http://www.w3.org/2000/svg" width="43.572" height="43.573" viewBox="0 0 43.572 43.573"><defs><style>.a{fill:#666;}</style></defs><path class="a" d="M231.988,597.016h-7.78v-9.337a1.556,1.556,0,0,0-1.556-1.556H200.865a1.556,1.556,0,0,0-1.556,1.556v9.337h-7.781a1.556,1.556,0,0,0-1.555,1.556V618.8a1.556,1.556,0,0,0,1.555,1.556h7.781v7.781a1.556,1.556,0,0,0,1.556,1.556h21.786a1.556,1.556,0,0,0,1.556-1.556v-7.781h7.78a1.556,1.556,0,0,0,1.556-1.556v-20.23A1.556,1.556,0,0,0,231.988,597.016Zm-29.567-7.78h18.674v7.78H202.421Zm18.674,37.348H202.421V612.577h18.674Zm9.337-9.337h-6.225v-4.669h1.556a1.556,1.556,0,1,0,0-3.112H197.752a1.556,1.556,0,1,0,0,3.112h1.556v4.669h-6.225V600.128h37.349Z" transform="translate(-189.972 -586.123)"/><path class="a" d="M236.736,611.839h1.556a1.556,1.556,0,1,0,0-3.112h-1.556a1.556,1.556,0,1,0,0,3.112Z" transform="translate(-200.945 -591.609)"/><path class="a" d="M221.414,625.166h-9.337a1.556,1.556,0,1,0,0,3.112h9.337a1.556,1.556,0,1,0,0-3.112Z" transform="translate(-194.96 -595.599)"/><path class="a" d="M221.414,631.331h-9.337a1.556,1.556,0,1,0,0,3.112h9.337a1.556,1.556,0,1,0,0-3.112Z" transform="translate(-194.96 -597.096)"/></svg>