<svg xmlns="http://www.w3.org/2000/svg" width="1240" height="976" viewBox="0 0 1240 976">
  <g id="公司組織圖" transform="translate(-344 -467)">
    <line id="Line_16" data-name="Line 16" y2="495" transform="translate(898.5 537.5)" fill="none" stroke="#eedcd4" stroke-width="2"/>
    <rect id="Rectangle_30" data-name="Rectangle 30" width="270" height="70" rx="20" transform="translate(763 467)" fill="#d6361e"/>
    <rect id="Rectangle_35" data-name="Rectangle 35" width="270" height="50" rx="20" transform="translate(1164 505)" fill="#f0ae36" opacity="0.2"/>
    <rect id="Rectangle_36" data-name="Rectangle 36" width="270" height="50" rx="20" transform="translate(1164 572)" fill="#f0ae36" opacity="0.2"/>
    <rect id="Rectangle_37" data-name="Rectangle 37" width="270" height="50" rx="20" transform="translate(1164 638)" fill="#f0ae36" opacity="0.2"/>
    <rect id="Rectangle_38" data-name="Rectangle 38" width="270" height="50" rx="20" transform="translate(1164 705)" fill="#f0ae36" opacity="0.2"/>
    <rect id="Rectangle_39" data-name="Rectangle 39" width="270" height="50" rx="20" transform="translate(1164 885)" fill="#f0ae36" opacity="0.2"/>
    <rect id="Rectangle_40" data-name="Rectangle 40" width="270" height="50" rx="20" transform="translate(1164 945)" fill="#f0ae36" opacity="0.2"/>
    <rect id="Rectangle_31" data-name="Rectangle 31" width="270" height="70" rx="20" transform="translate(763 592)" fill="#d5371a"/>
    <rect id="Rectangle_32" data-name="Rectangle 32" width="270" height="70" rx="20" transform="translate(763 718)" fill="#d7351e"/>
    <rect id="Rectangle_33" data-name="Rectangle 33" width="270" height="70" rx="20" transform="translate(763 843)" fill="#d7351e"/>
    <rect id="Rectangle_34" data-name="Rectangle 34" width="270" height="70" rx="20" transform="translate(763 968)" fill="#d6361e"/>
    <rect id="Rectangle_41" data-name="Rectangle 41" width="250" height="50" rx="10" transform="translate(394 1193) rotate(90)" fill="#7c956c"/>
    <rect id="Rectangle_41-2" data-name="Rectangle 41" width="250" height="50" rx="10" transform="translate(464 1193) rotate(90)" fill="#7c956c"/>
    <rect id="Rectangle_41-3" data-name="Rectangle 41" width="250" height="50" rx="10" transform="translate(534 1193) rotate(90)" fill="#7c956c"/>
    <rect id="Rectangle_41-4" data-name="Rectangle 41" width="250" height="50" rx="10" transform="translate(604 1193) rotate(90)" fill="#2b540e" opacity="0.6"/>
    <rect id="Rectangle_41-5" data-name="Rectangle 41" width="250" height="50" rx="10" transform="translate(674 1193) rotate(90)" fill="#2b540e" opacity="0.6"/>
    <rect id="Rectangle_41-6" data-name="Rectangle 41" width="250" height="50" rx="10" transform="translate(744 1193) rotate(90)" fill="#2b540e" opacity="0.6"/>
    <rect id="Rectangle_41-7" data-name="Rectangle 41" width="250" height="50" rx="10" transform="translate(814 1193) rotate(90)" fill="#2b540e" opacity="0.6"/>
    <rect id="Rectangle_41-8" data-name="Rectangle 41" width="250" height="50" rx="10" transform="translate(884 1193) rotate(90)" fill="#2b540e" opacity="0.6"/>
    <rect id="Rectangle_41-9" data-name="Rectangle 41" width="250" height="50" rx="10" transform="translate(954 1193) rotate(90)" fill="#2b540e" opacity="0.6"/>
    <rect id="Rectangle_41-10" data-name="Rectangle 41" width="250" height="50" rx="10" transform="translate(1024 1193) rotate(90)" fill="#2b540e" opacity="0.6"/>
    <rect id="Rectangle_41-11" data-name="Rectangle 41" width="250" height="50" rx="10" transform="translate(1094 1193) rotate(90)" fill="#2b540e" opacity="0.6"/>
    <rect id="Rectangle_41-12" data-name="Rectangle 41" width="250" height="50" rx="10" transform="translate(1164 1193) rotate(90)" fill="#2b540e" opacity="0.6"/>
    <rect id="Rectangle_41-13" data-name="Rectangle 41" width="250" height="50" rx="10" transform="translate(1234 1193) rotate(90)" fill="#2b540e" opacity="0.6"/>
    <rect id="Rectangle_41-14" data-name="Rectangle 41" width="250" height="50" rx="10" transform="translate(1304 1193) rotate(90)" fill="#2b540e" opacity="0.6"/>
    <rect id="Rectangle_41-15" data-name="Rectangle 41" width="250" height="50" rx="10" transform="translate(1374 1193) rotate(90)" fill="#2b540e" opacity="0.6"/>
    <rect id="Rectangle_41-16" data-name="Rectangle 41" width="250" height="50" rx="10" transform="translate(1444 1193) rotate(90)" fill="#2b540e" opacity="0.6"/>
    <rect id="Rectangle_41-17" data-name="Rectangle 41" width="250" height="50" rx="10" transform="translate(1514 1193) rotate(90)" fill="#2b540e" opacity="0.6"/>
    <rect id="Rectangle_41-18" data-name="Rectangle 41" width="250" height="50" rx="10" transform="translate(1584 1193) rotate(90)" fill="#2b540e" opacity="0.6"/>
    <text id="股東會" transform="translate(898 511)" fill="#fff" font-size="20" font-family="NotoSansCJKtc-Regular, Noto Sans CJK TC"><tspan x="-30" y="0">股東會</tspan></text>
    <text id="審計委員會" transform="translate(1259 536)" fill="#d7351e" font-size="20" font-family="NotoSansCJKtc-Regular, Noto Sans CJK TC"><tspan x="-50" y="0">審計委員會</tspan></text>
    <text id="薪資報酬委員會" transform="translate(1279 603)" fill="#d7351e" font-size="20" font-family="NotoSansCJKtc-Regular, Noto Sans CJK TC"><tspan x="-70" y="0">薪資報酬委員會</tspan></text>
    <text id="企業永續發展委員會" transform="translate(1299 670)" fill="#d7351e" font-size="20" font-family="NotoSansCJKtc-Regular, Noto Sans CJK TC"><tspan x="-90" y="0">企業永續發展委員會</tspan></text>
    <text id="風險管理執行委員會" transform="translate(1299 738)" fill="#d7351e" font-size="20" font-family="NotoSansCJKtc-Regular, Noto Sans CJK TC"><tspan x="-90" y="0">風險管理執行委員會</tspan></text>
    <text id="資訊安全管理委員會" transform="translate(1299 916)" fill="#d7351e" font-size="20" font-family="NotoSansCJKtc-Regular, Noto Sans CJK TC"><tspan x="-90" y="0">資訊安全管理委員會</tspan></text>
    <text id="勞工安全衛生管理室" transform="translate(1299 977)" fill="#d7351e" font-size="20" font-family="NotoSansCJKtc-Regular, Noto Sans CJK TC"><tspan x="-90" y="0">勞工安全衛生管理室</tspan></text>
    <text id="和_平_分_公_司_和_平_廠" data-name="和
平
分
公
司
和
平
廠" transform="translate(789 1243)" fill="#fff" font-size="20" font-family="NotoSansCJKtc-Regular, Noto Sans CJK TC"><tspan x="-10" y="0">和</tspan><tspan x="-10" y="24">平</tspan><tspan x="-10" y="48">分</tspan><tspan x="-10" y="72">公</tspan><tspan x="-10" y="96">司</tspan><tspan x="-10" y="120">和</tspan><tspan x="-10" y="144">平</tspan><tspan x="-10" y="168">廠</tspan></text>
    <text id="蘇_澳_廠" data-name="蘇
澳
廠" transform="translate(859 1303)" fill="#fff" font-size="20" font-family="NotoSansCJKtc-Regular, Noto Sans CJK TC"><tspan x="-10" y="0">蘇</tspan><tspan x="-10" y="24">澳</tspan><tspan x="-10" y="48">廠</tspan></text>
    <text id="花_蓮_廠" data-name="花
蓮
廠" transform="translate(929 1303)" fill="#fff" font-size="20" font-family="NotoSansCJKtc-Regular, Noto Sans CJK TC"><tspan x="-10" y="0">花</tspan><tspan x="-10" y="24">蓮</tspan><tspan x="-10" y="48">廠</tspan></text>
    <text id="營_建_部" data-name="營
建
部" transform="translate(999 1303)" fill="#fff" font-size="20" font-family="NotoSansCJKtc-Regular, Noto Sans CJK TC"><tspan x="-10" y="0">營</tspan><tspan x="-10" y="24">建</tspan><tspan x="-10" y="48">部</tspan></text>
    <text id="財_務_部" data-name="財
務
部" transform="translate(1069 1303)" fill="#fff" font-size="20" font-family="NotoSansCJKtc-Regular, Noto Sans CJK TC"><tspan x="-10" y="0">財</tspan><tspan x="-10" y="24">務</tspan><tspan x="-10" y="48">部</tspan></text>
    <text id="物_料_部" data-name="物
料
部" transform="translate(1139 1303)" fill="#fff" font-size="20" font-family="NotoSansCJKtc-Regular, Noto Sans CJK TC"><tspan x="-10" y="0">物</tspan><tspan x="-10" y="24">料</tspan><tspan x="-10" y="48">部</tspan></text>
    <text id="總_務_部" data-name="總
務
部" transform="translate(1209 1303)" fill="#fff" font-size="20" font-family="NotoSansCJKtc-Regular, Noto Sans CJK TC"><tspan x="-10" y="0">總</tspan><tspan x="-10" y="24">務</tspan><tspan x="-10" y="48">部</tspan></text>
    <text id="人_力_資_源_部" data-name="人
力
資
源
部" transform="translate(1279 1279)" fill="#fff" font-size="20" font-family="NotoSansCJKtc-Regular, Noto Sans CJK TC"><tspan x="-10" y="0">人</tspan><tspan x="-10" y="24">力</tspan><tspan x="-10" y="48">資</tspan><tspan x="-10" y="72">源</tspan><tspan x="-10" y="96">部</tspan></text>
    <text id="業_務_部" data-name="業
務
部" transform="translate(1349 1303)" fill="#fff" font-size="20" font-family="NotoSansCJKtc-Regular, Noto Sans CJK TC"><tspan x="-10" y="0">業</tspan><tspan x="-10" y="24">務</tspan><tspan x="-10" y="48">部</tspan></text>
    <text id="台_北_水_泥_製_造_廠" data-name="台
北
水
泥
製
造
廠" transform="translate(1419 1255)" fill="#fff" font-size="20" font-family="NotoSansCJKtc-Regular, Noto Sans CJK TC"><tspan x="-10" y="0">台</tspan><tspan x="-10" y="24">北</tspan><tspan x="-10" y="48">水</tspan><tspan x="-10" y="72">泥</tspan><tspan x="-10" y="96">製</tspan><tspan x="-10" y="120">造</tspan><tspan x="-10" y="144">廠</tspan></text>
    <text id="台_中_水_泥_製_造_廠" data-name="台
中
水
泥
製
造
廠" transform="translate(1489 1255)" fill="#fff" font-size="20" font-family="NotoSansCJKtc-Regular, Noto Sans CJK TC"><tspan x="-10" y="0">台</tspan><tspan x="-10" y="24">中</tspan><tspan x="-10" y="48">水</tspan><tspan x="-10" y="72">泥</tspan><tspan x="-10" y="96">製</tspan><tspan x="-10" y="120">造</tspan><tspan x="-10" y="144">廠</tspan></text>
    <text id="高_雄_水_泥_製_造_廠" data-name="高
雄
水
泥
製
造
廠" transform="translate(1559 1255)" fill="#fff" font-size="20" font-family="NotoSansCJKtc-Regular, Noto Sans CJK TC"><tspan x="-10" y="0">高</tspan><tspan x="-10" y="24">雄</tspan><tspan x="-10" y="48">水</tspan><tspan x="-10" y="72">泥</tspan><tspan x="-10" y="96">製</tspan><tspan x="-10" y="120">造</tspan><tspan x="-10" y="144">廠</tspan></text>
    <text id="法_務_室" data-name="法
務
室" transform="translate(579 1303)" fill="#fff" font-size="20" font-family="NotoSansCJKtc-Regular, Noto Sans CJK TC"><tspan x="-10" y="0">法</tspan><tspan x="-10" y="24">務</tspan><tspan x="-10" y="48">室</tspan></text>
    <text id="工_務_部" data-name="工
務
部" transform="translate(649 1303)" fill="#fff" font-size="20" font-family="NotoSansCJKtc-Regular, Noto Sans CJK TC"><tspan x="-10" y="0">工</tspan><tspan x="-10" y="24">務</tspan><tspan x="-10" y="48">部</tspan></text>
    <text id="研_究_室" data-name="研
究
室" transform="translate(719 1303)" fill="#fff" font-size="20" font-family="NotoSansCJKtc-Regular, Noto Sans CJK TC"><tspan x="-10" y="0">研</tspan><tspan x="-10" y="24">究</tspan><tspan x="-10" y="48">室</tspan></text>
    <text id="企_業_團" data-name="企
業
團" transform="translate(369 1303)" fill="#fff" font-size="20" font-family="NotoSansCJKtc-Regular, Noto Sans CJK TC"><tspan x="-10" y="0">企</tspan><tspan x="-10" y="24">業</tspan><tspan x="-10" y="48">團</tspan></text>
    <text id="董_事_會_秘_書_室" data-name="董
事
會
秘
書
室" transform="translate(439 1267)" fill="#fff" font-size="20" font-family="NotoSansCJKtc-Regular, Noto Sans CJK TC"><tspan x="-10" y="0">董</tspan><tspan x="-10" y="24">事</tspan><tspan x="-10" y="48">會</tspan><tspan x="-10" y="72">秘</tspan><tspan x="-10" y="96">書</tspan><tspan x="-10" y="120">室</tspan></text>
    <text id="稽_核_室" data-name="稽
核
室" transform="translate(509 1303)" fill="#fff" font-size="20" font-family="NotoSansCJKtc-Regular, Noto Sans CJK TC"><tspan x="-10" y="0">稽</tspan><tspan x="-10" y="24">核</tspan><tspan x="-10" y="48">室</tspan></text>
    <text id="董事會_董事長_副董事長" data-name="董事會

董事長  副董事長" transform="translate(898 623)" fill="#fff" font-size="20" font-family="NotoSansCJKtc-Regular, Noto Sans CJK TC"><tspan x="-30" y="0">董事會</tspan><tspan x="0" y="12"></tspan><tspan x="-74.48" y="24" xml:space="preserve">董事長  副董事長</tspan></text>
    <text id="企業團總執行長" transform="translate(898 763)" fill="#fff" font-size="20" font-family="NotoSansCJKtc-Regular, Noto Sans CJK TC"><tspan x="-70" y="0">企業團總執行長</tspan></text>
    <text id="總管理處_總經理" data-name="總管理處  總經理" transform="translate(898 887)" fill="#fff" font-size="20" font-family="NotoSansCJKtc-Regular, Noto Sans CJK TC"><tspan x="-74.48" y="0" xml:space="preserve">總管理處  總經理</tspan></text>
    <text id="總管理處_副總經理" data-name="總管理處  副總經理" transform="translate(898 1012)" fill="#fff" font-size="20" font-family="NotoSansCJKtc-Regular, Noto Sans CJK TC"><tspan x="-84.48" y="0" xml:space="preserve">總管理處  副總經理</tspan></text>
    <line id="Line_17" data-name="Line 17" x2="72" transform="translate(1033.5 627.5)" fill="none" stroke="#eedcd4" stroke-width="1"/>
    <line id="Line_23" data-name="Line 23" x2="207" transform="translate(898.5 942.5)" fill="none" stroke="#eedcd4" stroke-width="1"/>
    <line id="Line_18" data-name="Line 18" y2="200" transform="translate(1105.5 530.5)" fill="none" stroke="#eedcd4" stroke-width="1"/>
    <line id="Line_24" data-name="Line 24" y2="58" transform="translate(1105.5 912.5)" fill="none" stroke="#eedcd4" stroke-width="1"/>
    <line id="Line_19" data-name="Line 19" x2="58.833" transform="translate(1105.667 730.5)" fill="none" stroke="#eedcd4" stroke-width="1"/>
    <line id="Line_20" data-name="Line 20" x2="58.833" transform="translate(1105.667 663.5)" fill="none" stroke="#eedcd4" stroke-width="1"/>
    <line id="Line_26" data-name="Line 26" x2="58.833" transform="translate(1105.667 970.5)" fill="none" stroke="#eedcd4" stroke-width="1"/>
    <line id="Line_21" data-name="Line 21" x2="58.833" transform="translate(1105.667 597.5)" fill="none" stroke="#eedcd4" stroke-width="1"/>
    <line id="Line_25" data-name="Line 25" x2="58.833" transform="translate(1105.667 912.5)" fill="none" stroke="#eedcd4" stroke-width="1"/>
    <line id="Line_22" data-name="Line 22" x2="58.833" transform="translate(1105.667 530.5)" fill="none" stroke="#eedcd4" stroke-width="1"/>
    <line id="Line_27" data-name="Line 27" x1="873" transform="translate(579.5 1128.5)" fill="none" stroke="#dddfde" stroke-width="2"/>
    <line id="Line_50" data-name="Line 50" x1="140" transform="translate(369.5 1128.5)" fill="none" stroke="#dddfde" stroke-width="2"/>
    <line id="Line_33" data-name="Line 33" x1="280" transform="translate(649.5 1167.5)" fill="none" stroke="#dddfde" stroke-width="2"/>
    <line id="Line_38" data-name="Line 38" x1="282" transform="translate(999.5 1167.5)" fill="none" stroke="#dddfde" stroke-width="2"/>
    <line id="Line_43" data-name="Line 43" x1="207" transform="translate(1352.5 1167.5)" fill="none" stroke="#dddfde" stroke-width="2"/>
    <line id="Line_28" data-name="Line 28" y2="65" transform="translate(579.5 1128.5)" fill="none" stroke="#dddfde" stroke-width="2"/>
    <line id="Line_51" data-name="Line 51" y2="65" transform="translate(509.5 1128.5)" fill="none" stroke="#dddfde" stroke-width="2"/>
    <line id="Line_52" data-name="Line 52" y2="65" transform="translate(369.5 1128.5)" fill="none" stroke="#dddfde" stroke-width="2"/>
    <line id="Line_31" data-name="Line 31" y2="65" transform="translate(789.5 1128.5)" fill="none" stroke="#dddfde" stroke-width="2"/>
    <line id="Line_34" data-name="Line 34" y2="26" transform="translate(649.5 1167.5)" fill="none" stroke="#dddfde" stroke-width="2"/>
    <line id="Line_36" data-name="Line 36" y2="26" transform="translate(719.5 1167.5)" fill="none" stroke="#dddfde" stroke-width="2"/>
    <line id="Line_37" data-name="Line 37" y2="26" transform="translate(859.5 1167.5)" fill="none" stroke="#dddfde" stroke-width="2"/>
    <line id="Line_40" data-name="Line 40" y2="26" transform="translate(1212.5 1167.5)" fill="none" stroke="#dddfde" stroke-width="2"/>
    <line id="Line_45" data-name="Line 45" y2="26" transform="translate(1419.5 1167.5)" fill="none" stroke="#dddfde" stroke-width="2"/>
    <line id="Line_44" data-name="Line 44" y2="26" transform="translate(1352.5 1167.5)" fill="none" stroke="#dddfde" stroke-width="2"/>
    <line id="Line_35" data-name="Line 35" y2="26" transform="translate(929.5 1167.5)" fill="none" stroke="#dddfde" stroke-width="2"/>
    <line id="Line_41" data-name="Line 41" y2="26" transform="translate(999.5 1167.5)" fill="none" stroke="#dddfde" stroke-width="2"/>
    <line id="Line_42" data-name="Line 42" y2="26" transform="translate(1069.5 1167.5)" fill="none" stroke="#dddfde" stroke-width="2"/>
    <line id="Line_39" data-name="Line 39" y2="26" transform="translate(1282.5 1167.5)" fill="none" stroke="#dddfde" stroke-width="2"/>
    <line id="Line_47" data-name="Line 47" y2="26" transform="translate(1559.5 1167.5)" fill="none" stroke="#dddfde" stroke-width="2"/>
    <line id="Line_46" data-name="Line 46" y2="26" transform="translate(1489.5 1167.5)" fill="none" stroke="#dddfde" stroke-width="2"/>
    <line id="Line_32" data-name="Line 32" y2="65" transform="translate(1139.5 1128.5)" fill="none" stroke="#dddfde" stroke-width="2"/>
    <line id="Line_30" data-name="Line 30" y2="90" transform="translate(898.5 1038.5)" fill="none" stroke="#dddfde" stroke-width="2"/>
    <line id="Line_29" data-name="Line 29" y2="39" transform="translate(1452.5 1128.5)" fill="none" stroke="#dddfde" stroke-width="2"/>
    <line id="Line_48" data-name="Line 48" x1="459" transform="translate(439.5 692.5)" fill="none" stroke="#dddfde" stroke-width="2"/>
    <line id="Line_49" data-name="Line 49" y2="501" transform="translate(439.5 692.5)" fill="none" stroke="#dddfde" stroke-width="2"/>
  </g>
</svg>
